TITLE ""
FILE "P1Q_t_0610-0619.mp3" MP3
  TRACK 01 AUDIO
    TITLE "P1Q_t_0610-0619_01"
    INDEX 01 00:00:00
  TRACK 02 AUDIO
    TITLE "P1Q_t_0610-0619_02"
    INDEX 01 00:01:25
  TRACK 03 AUDIO
    TITLE "P1Q_t_0610-0619_03"
    INDEX 01 00:01:49
  TRACK 04 AUDIO
    TITLE "P1Q_t_0610-0619_04"
    INDEX 01 00:05:66
  TRACK 05 AUDIO
    TITLE "P1Q_t_0610-0619_05"
    INDEX 01 00:06:11
  TRACK 06 AUDIO
    TITLE "P1Q_t_0610-0619_06"
    INDEX 01 00:11:63
  TRACK 07 AUDIO
    TITLE "P1Q_t_0610-0619_07"
    INDEX 01 00:12:33
  TRACK 08 AUDIO
    TITLE "P1Q_t_0610-0619_08"
    INDEX 01 00:13:60
  TRACK 09 AUDIO
    TITLE "P1Q_t_0610-0619_09"
    INDEX 01 00:14:07
  TRACK 10 AUDIO
    TITLE "P1Q_t_0610-0619_10"
    INDEX 01 00:18:73
  TRACK 11 AUDIO
    TITLE "P1Q_t_0610-0619_11"
    INDEX 01 00:19:19
  TRACK 12 AUDIO
    TITLE "P1Q_t_0610-0619_12"
    INDEX 01 00:24:66
  TRACK 13 AUDIO
    TITLE "P1Q_t_0610-0619_13"
    INDEX 01 00:25:36
  TRACK 14 AUDIO
    TITLE "P1Q_t_0610-0619_14"
    INDEX 01 00:26:57
  TRACK 15 AUDIO
    TITLE "P1Q_t_0610-0619_15"
    INDEX 01 00:27:05
  TRACK 16 AUDIO
    TITLE "P1Q_t_0610-0619_16"
    INDEX 01 00:29:10
  TRACK 17 AUDIO
    TITLE "P1Q_t_0610-0619_17"
    INDEX 01 00:29:30
  TRACK 18 AUDIO
    TITLE "P1Q_t_0610-0619_18"
    INDEX 01 00:35:56
  TRACK 19 AUDIO
    TITLE "P1Q_t_0610-0619_19"
    INDEX 01 00:36:30
  TRACK 20 AUDIO
    TITLE "P1Q_t_0610-0619_20"
    INDEX 01 00:37:49
  TRACK 21 AUDIO
    TITLE "P1Q_t_0610-0619_21"
    INDEX 01 00:37:70
  TRACK 22 AUDIO
    TITLE "P1Q_t_0610-0619_22"
    INDEX 01 00:39:26
  TRACK 23 AUDIO
    TITLE "P1Q_t_0610-0619_23"
    INDEX 01 00:39:46
  TRACK 24 AUDIO
    TITLE "P1Q_t_0610-0619_24"
    INDEX 01 00:44:60
  TRACK 25 AUDIO
    TITLE "P1Q_t_0610-0619_25"
    INDEX 01 00:45:36
  TRACK 26 AUDIO
    TITLE "P1Q_t_0610-0619_26"
    INDEX 01 00:46:46
  TRACK 27 AUDIO
    TITLE "P1Q_t_0610-0619_27"
    INDEX 01 00:46:67
  TRACK 28 AUDIO
    TITLE "P1Q_t_0610-0619_28"
    INDEX 01 00:49:62
  TRACK 29 AUDIO
    TITLE "P1Q_t_0610-0619_29"
    INDEX 01 00:50:06
  TRACK 30 AUDIO
    TITLE "P1Q_t_0610-0619_30"
    INDEX 01 00:54:43
  TRACK 31 AUDIO
    TITLE "P1Q_t_0610-0619_31"
    INDEX 01 00:55:13
  TRACK 32 AUDIO
    TITLE "P1Q_t_0610-0619_32"
    INDEX 01 00:56:09
  TRACK 33 AUDIO
    TITLE "P1Q_t_0610-0619_33"
    INDEX 01 00:56:32
  TRACK 34 AUDIO
    TITLE "P1Q_t_0610-0619_34"
    INDEX 01 00:58:16
  TRACK 35 AUDIO
    TITLE "P1Q_t_0610-0619_35"
    INDEX 01 00:58:35
  TRACK 36 AUDIO
    TITLE "P1Q_t_0610-0619_36"
    INDEX 01 01:03:34
  TRACK 37 AUDIO
    TITLE "P1Q_t_0610-0619_37"
    INDEX 01 01:04:08
  TRACK 38 AUDIO
    TITLE "P1Q_t_0610-0619_38"
    INDEX 01 01:05:25
  TRACK 39 AUDIO
    TITLE "P1Q_t_0610-0619_39"
    INDEX 01 01:05:45
  TRACK 40 AUDIO
    TITLE "P1Q_t_0610-0619_40"
    INDEX 01 01:08:34
  TRACK 41 AUDIO
    TITLE "P1Q_t_0610-0619_41"
    INDEX 01 01:08:53
  TRACK 42 AUDIO
    TITLE "P1Q_t_0610-0619_42"
    INDEX 01 01:13:31
  TRACK 43 AUDIO
    TITLE "P1Q_t_0610-0619_43"
    INDEX 01 01:14:03
  TRACK 44 AUDIO
    TITLE "P1Q_t_0610-0619_44"
    INDEX 01 01:15:06
  TRACK 45 AUDIO
    TITLE "P1Q_t_0610-0619_45"
    INDEX 01 01:15:28
  TRACK 46 AUDIO
    TITLE "P1Q_t_0610-0619_46"
    INDEX 01 01:18:06
  TRACK 47 AUDIO
    TITLE "P1Q_t_0610-0619_47"
    INDEX 01 01:18:22
  TRACK 48 AUDIO
    TITLE "P1Q_t_0610-0619_48"
    INDEX 01 01:22:08
  TRACK 49 AUDIO
    TITLE "P1Q_t_0610-0619_49"
    INDEX 01 01:22:53
  TRACK 50 AUDIO
    TITLE "P1Q_t_0610-0619_50"
    INDEX 01 01:23:70
  TRACK 51 AUDIO
    TITLE "P1Q_t_0610-0619_51"
    INDEX 01 01:24:17
  TRACK 52 AUDIO
    TITLE "P1Q_t_0610-0619_52"
    INDEX 01 01:27:39
  TRACK 53 AUDIO
    TITLE "P1Q_t_0610-0619_53"
    INDEX 01 01:27:58
  TRACK 54 AUDIO
    TITLE "P1Q_t_0610-0619_54"
    INDEX 01 01:31:66
  TRACK 55 AUDIO
    TITLE "P1Q_t_0610-0619_55"
    INDEX 01 01:32:40
  TRACK 56 AUDIO
    TITLE "P1Q_t_0610-0619_56"
    INDEX 01 01:33:41
  TRACK 57 AUDIO
    TITLE "P1Q_t_0610-0619_57"
    INDEX 01 01:33:67
  TRACK 58 AUDIO
    TITLE "P1Q_t_0610-0619_58"
    INDEX 01 01:37:08
  TRACK 59 AUDIO
    TITLE "P1Q_t_0610-0619_59"
    INDEX 01 01:37:27
  TRACK 60 AUDIO
    TITLE "P1Q_t_0610-0619_60"
    INDEX 01 01:41:74
